<?xml version="1.0" encoding="UTF-8"?>
<!DOCTYPE svg PUBLIC "-//W3C//DTD SVG 1.1//EN" "http://www.w3.org/Graphics/SVG/1.1/DTD/svg11.dtd">
<!-- Creator: CorelDRAW -->
<svg xmlns="http://www.w3.org/2000/svg" xml:space="preserve" width="143.646mm" height="52.5542mm" version="1.1" style="shape-rendering:geometricPrecision; text-rendering:geometricPrecision; image-rendering:optimizeQuality; fill-rule:evenodd; clip-rule:evenodd"
viewBox="0 0 14361.48 5254.29"
 xmlns:xlink="http://www.w3.org/1999/xlink"
 xmlns:xodm="http://www.corel.com/coreldraw/odm/2003">
 <defs>
  <style type="text/css">
   <![CDATA[
    .str0 {stroke:black;stroke-width:26.45;stroke-miterlimit:22.9256}
    .fil1 {fill:none;fill-rule:nonzero}
    .fil0 {fill:#FEFEFE;fill-rule:nonzero}
   ]]>
  </style>
 </defs>
 <g id="Layer_x0020_1">
  <metadata id="CorelCorpID_0Corel-Layer"/>
  <path class="fil0" d="M2755.75 3967.9l-2032.98 0c-30.46,0 -60.17,-9.62 -84.84,-27.48 -24.67,-17.84 -43.08,-43.03 -52.6,-71.98l-109.65 -333.69 -219.27 -667.38 -46.43 33.88 -150.56 109.81c-24.61,17.96 -42.93,43.24 -52.34,72.21 -9.41,28.97 -9.43,60.21 -0.07,89.2l270.72 835.84 157.58 486.36 47.2 145.7c9.41,29.08 27.81,54.44 52.54,72.41 24.71,17.98 54.51,27.68 85.08,27.68l1925.59 0c35.35,0 69.48,-12.94 95.94,-36.39 26.46,-23.45 43.42,-55.77 47.67,-90.87l71.17 -587.15c2.4,-19.52 0.77,-39.28 -4.75,-58.15z"/>
  <line class="fil1 str0" x1="256.4" y1="2867.39" x2="256.31" y2= "2867.14" />
  <path class="fil0" d="M783.21 1435.96c-9.54,-29.08 -9.61,-60.41 -0.22,-89.52 9.39,-29.13 27.77,-54.51 52.49,-72.53l851.55 -620.74 -203.44 -147.53c-24.74,-17.98 -54.54,-27.65 -85.11,-27.65 -30.55,0 -60.34,9.68 -85.08,27.65l-1121.5 817.82 -122.05 89.11c-24.74,18 -43.13,43.4 -52.54,72.5 -9.42,29.11 -9.35,60.46 0.18,89.54l601.8 1832.52c10.95,33.38 33.68,61.63 63.94,79.5 30.26,17.84 65.98,24.08 100.49,17.53l581.09 -110.35c19.43,-3.65 37.88,-11.25 54.26,-22.31l-168.68 -513.56 -467.17 -1421.99z"/>
  <path class="fil0" d="M4251.31 930.95l-1114.64 -814.15 -121.75 -88.93c-24.76,-18.09 -54.64,-27.83 -85.3,-27.83 -30.67,0 -60.55,9.75 -85.33,27.83l-1558.9 1137.88c-28.38,20.72 -48.26,51.09 -55.91,85.39 -7.62,34.31 -2.51,70.22 14.41,101.06l311.95 568.7 454.73 -331.14 928.68 -676.48 207.47 -151.04 64.39 -46.93c24.74,-18.05 54.58,-27.76 85.22,-27.76 30.62,0 60.46,9.72 85.22,27.76l845.44 617.04 76.84 -240.58c9.23,-28.92 9.14,-60.03 -0.29,-88.88 -9.43,-28.86 -27.7,-54.04 -52.22,-71.92z"/>
  <g>
   <path class="fil0" d="M5186.68 2554.69c0.07,0.05 0.16,0.09 0.27,0.09 0.09,0.03 0.18,0.03 0.27,-0.02 0.09,-0.02 0.16,-0.07 0.23,-0.14 0.07,-0.06 0.11,-0.15 0.13,-0.24l46.12 -145.59c9.16,-28.88 9,-59.91 -0.43,-88.72 -9.43,-28.79 -27.68,-53.9 -52.16,-71.76l-1560.02 -1139.31c-28.56,-20.84 -63.74,-30.46 -98.91,-27.14 -35.16,3.33 -67.9,19.41 -92.02,45.23l-443.06 473.26 445.5 325.52 1212.23 885.72c24.49,17.87 42.77,42.97 52.25,71.78 9.45,28.81 9.61,59.87 0.47,88.77l-318.05 995.63 254.75 0c30.76,0 60.69,-9.79 85.49,-27.95 24.81,-18.16 43.18,-43.74 52.45,-73.04l415.27 -1311.57 -0.77 -0.5zm0 0l0 0 0 0z"/>
  </g>
  <path class="fil0" d="M4324.65 3147.99l-588.42 -279.4 -167.27 523.33 -455.81 1427.15c-9.37,29.33 -27.84,54.89 -52.74,72.98 -24.9,18.12 -54.92,27.79 -85.7,27.66l-1051.06 -4.53 80.85 240.53c9.66,28.72 28.09,53.7 52.7,71.38 24.61,17.69 54.15,27.18 84.45,27.18l1536.06 0c30.66,0 60.57,-9.75 85.35,-27.86 24.76,-18.1 43.15,-43.61 52.5,-72.82l584.84 -1831.05c10.61,-33.34 8.8,-69.4 -5.14,-101.49 -13.93,-32.09 -39.01,-58.06 -70.6,-73.07z"/>
  <path class="fil0" d="M2493.03 1869.84c-490.55,0 -888,397.66 -888,888.04 0,490.35 397.85,888.25 888.23,888.25 490.35,0 888.25,-397.84 888.25,-888.25 0,-490.39 -397.89,-888.04 -888.48,-888.04zm0 1121.92c-46.23,0 -91.39,-13.71 -129.82,-39.37 -38.42,-25.67 -68.39,-62.18 -86.07,-104.85 -17.69,-42.7 -22.33,-89.68 -13.33,-135 9.01,-45.33 31.23,-86.98 63.92,-119.66 32.66,-32.68 74.27,-54.96 119.59,-64.01 45.33,-9.03 92.3,-4.44 135,13.23 42.72,17.67 79.23,47.59 104.92,85.99 25.71,38.4 39.45,83.57 39.49,129.79 0.02,30.69 -5.99,61.12 -17.73,89.5 -11.74,28.35 -28.95,54.17 -50.64,75.87 -21.72,21.72 -47.5,38.95 -75.86,50.71 -28.35,11.74 -58.78,17.8 -89.47,17.8z"/>
  <path class="fil0" d="M7215.26 32.52l0 44.35c-38.71,2.27 -64.64,12.81 -77.66,31.64 -12.98,18.84 -19.52,61.66 -19.52,128.44l0 586.65c0,89.13 6.04,157.94 18.07,206.45 21.86,90.24 63.67,135.36 125.61,135.36 76.83,0 128.83,-49.92 155.84,-149.75 15.06,-54.8 22.62,-131.56 22.62,-230.26l0 -535.74c0,-62.67 -6.58,-105.85 -19.82,-129.52 -13.16,-23.7 -39.08,-38.11 -77.55,-43.27l0 -44.35 219.86 0 0 44.35c-31.96,10.84 -53.02,24.11 -63.33,39.78 -10.3,15.68 -15.43,51.73 -15.43,108.14l0 560.12c0,148.8 -20.47,263.67 -61.52,344.6 -41,80.94 -105.44,121.4 -193.24,121.4 -115.01,0 -193.69,-60.19 -236.01,-180.53 -22.44,-63.87 -33.67,-146.33 -33.67,-247.36l0 -586.15c0,-65.78 -5.04,-107.16 -14.97,-124.19 -9.94,-17.03 -32.37,-28.96 -67.38,-35.8l0 -44.35 338.09 0z"/>
  <path class="fil0" d="M7599.8 1171.44c37.11,-1.75 61.04,-14.14 71.8,-37.23 10.72,-23.1 16.11,-57.13 16.11,-102.16l0 -829.4c-30.65,-59.75 -49.56,-94.92 -56.73,-105.58 -6.76,-10.29 -17.3,-17.53 -29.33,-20.11l0 -44.44 212.01 0 344.02 731.54 4.91 0 0 -514.4c0,-59.26 -6.15,-101.57 -18.48,-126.94 -12.33,-25.4 -36.98,-40.67 -73.91,-45.85l0 -44.35 215.06 0 0 44.35c-31.3,9.03 -52.25,21.22 -62.83,36.57 -10.59,15.34 -15.86,49.6 -15.86,102.82l0 1032.11 -27.81 0 -440.31 -936.42 -6.83 0 0 686.71c0,53.9 4.25,92 12.69,114.31 13.34,36.16 40.68,55.66 82.09,58.47l0 44.41 -226.61 0 0 -44.41z"/>
  <path class="fil0" d="M8322.55 1171.44c28.36,-1.18 48.7,-7.22 61.09,-18.1 20.18,-18.1 30.28,-53.15 30.28,-105.17l0 -848.11c0,-51.47 -9.63,-86.01 -28.85,-103.58 -11.72,-10.77 -32.54,-17.26 -62.52,-19.53l0 -44.44 349.81 0 0 44.35c-31.23,2.27 -52.79,8.49 -64.51,18.67 -19.52,17.55 -29.26,52.36 -29.26,104.44l0 848.29c0,49.05 7.78,81.82 23.45,98.34 15.63,16.51 39.08,24.78 70.31,24.83l0 44.41 -349.81 0 0 -44.41z"/>
  <path class="fil0" d="M9047.62 32.52l0 42.72c-35.85,3.44 -59.06,8.71 -69.67,15.86 -10.58,7.15 -15.9,25.01 -15.86,53.58 -0.04,8.44 0.37,16.88 1.2,25.28 0.95,8.51 2.47,16.97 4.55,25.26l158.64 647.83 -1.56 0 131.13 -592.98c2.98,-13.17 5.56,-26.59 7.82,-40.28 3.49,-17.8 5.39,-35.87 5.86,-53.99 0,-33.15 -5.61,-53.87 -16.8,-62.13 -11.25,-8.26 -34.18,-14.41 -68.7,-18.44l0 -42.72 213.03 0 0 42.72c-11.31,1.77 -22.15,6.02 -31.66,12.45 -9.46,6.44 -17.42,14.9 -23.27,24.76 -12.29,20.24 -24.06,55.73 -35.44,106.41l-228.22 1029.51 -26.39 0 -257.67 -1048.88c-10.47,-42.21 -21.11,-72.55 -32,-91.1 -5.38,-9.1 -12.76,-16.83 -21.67,-22.56 -8.85,-5.7 -18.98,-9.25 -29.44,-10.36l0 -42.95 336.13 0z"/>
  <path class="fil0" d="M9434.37 1215.85l0 -44.41c28.65,-1.75 49.01,-8.58 61.09,-20.54 18.57,-18.28 27.83,-52.48 27.83,-102.64l0 -848.2c0,-50.91 -9.59,-85.15 -28.83,-102.72 -11.08,-10.64 -31.07,-17.47 -60.09,-20.48l0 -44.35 576.57 0 0 353.09 -24.42 0c-12.7,-112.86 -34.29,-190.14 -64.76,-231.89 -30.44,-41.75 -85.92,-62.54 -166.41,-62.4 -30.57,0 -50.03,5.54 -58.33,16.65 -8.33,11.08 -12.51,33.17 -12.51,66.27l0 405.29c57.02,1.17 95.62,-16.92 115.85,-54.26 20.22,-37.34 35.66,-105.56 46.38,-204.64l25.35 0 0 591.67 -25.35 0c-7.19,-99.74 -21.74,-169.98 -43.76,-210.76 -22.01,-40.78 -61.5,-61.16 -118.46,-61.14l0 424.14c0,37 5.43,62.22 16.33,75.62 10.95,13.42 33.34,20.14 67.2,20.14 63.85,0 115.98,-21.7 156.38,-65.03 40.43,-43.33 76.23,-124.57 107.47,-243.7l27.89 0 -40.69 364.26 -584.7 0z"/>
  <path class="fil0" d="M10102.13 1171.44c33.85,-2.85 56.97,-13.98 69.34,-33.38 12.36,-19.41 18.58,-61.61 18.58,-126.59l0 -774.59c0,-67.49 -7.31,-111.44 -21.97,-131.83 -9.77,-13.62 -31.77,-22.99 -65.95,-28.07l0 -44.44 321.99 0c66.79,0 120.81,12.24 162.17,36.75 80.12,49.58 120.22,138.78 120.22,267.6 0,95.22 -20.95,170.17 -62.97,224.88 -32.06,41.04 -66,67.29 -101.84,78.65l212.5 498.5c5.57,13.57 11.42,22.62 17.58,27.13 6.9,4.5 14.79,7.29 22.98,8.08l0 41.93 -208.78 0 -233.43 -547.05 -0.43 0 0 342.87c0,61.59 5.89,103.04 17.6,124.41 11.75,21.38 35.19,33.2 70.38,35.51l0 44.44 -338.16 0 0.18 -44.8zm390.57 -607.51c28.17,-30.51 42.31,-101.05 42.31,-211.62 0,-67.83 -5.38,-121.4 -16.1,-160.79 -18.55,-66.68 -52.48,-100.01 -101.67,-100.01 -26.68,0 -44.17,5.84 -52.47,17.51 -8.32,11.67 -12.51,30.91 -12.51,57.74l0 445.46c65.46,-1.72 112.32,-17.83 140.43,-48.29z"/>
  <path class="fil0" d="M10843.66 807.17l28.83 0c15.93,130.84 41.66,225.97 77.21,285.36 35.48,59.42 76.17,89.13 122.06,89.15 44.58,0 76.17,-20.4 94.9,-61.2 18.69,-40.35 28.31,-84.29 28.2,-128.78 0,-52.47 -9.82,-95.24 -29.44,-128.34 -12.99,-21.68 -39.27,-49.92 -78.87,-84.73l-63.8 -56.45c-63.26,-55.89 -107.89,-111.23 -133.87,-166.02 -25.89,-54.81 -38.94,-122.38 -39.01,-202.77 -0.59,-82.7 17.06,-164.53 51.7,-239.62 34.35,-74.16 87.14,-111.23 158.23,-111.23 37.05,0.18 73.37,10.24 105.2,29.12 33.8,19.39 53.08,29.06 57.87,29.06 5.14,0.18 10.12,-1.38 14.23,-4.41 4.08,-3.03 7.08,-7.35 8.4,-12.28 4.9,-14.28 8.25,-29.04 10.11,-44.04l29.8 0 0 381.37 -27.95 0c-13.05,-88.34 -36.02,-164.44 -69.01,-228.32 -32.95,-63.87 -73.04,-95.78 -120.13,-95.76 -33.15,0 -59.37,16.13 -78.57,48.38 -19.23,32.25 -28.85,71.42 -28.9,117.53 0,55.35 9.03,96.71 27.16,124.08 17.71,27.95 57.38,69.05 119.07,123.23l73.91 65.03c31.59,27.45 58.22,60.14 78.79,96.6 36.57,66.11 54.87,146.42 54.87,240.98 0.43,86.8 -19.75,172.45 -58.76,249.98 -39.19,78.37 -102.09,117.54 -188.67,117.54 -20.47,-0.09 -40.86,-3.4 -60.32,-9.82 -21.49,-7.13 -41.82,-17.35 -60.32,-30.33l-19.27 -12.84c-4.19,-2.13 -8.51,-4.01 -12.94,-5.57 -3.4,-1.24 -6.99,-1.97 -10.59,-2.13 -10.29,0 -17.28,5.25 -21.17,15.84 -4.8,14.59 -8.15,29.6 -10.07,44.85l-28.83 0 -0.07 -433.48z"/>
  <path class="fil0" d="M11381.14 1171.44c28.36,-1.18 48.72,-7.22 61.09,-18.1 20.18,-18.1 30.28,-53.15 30.28,-105.17l0 -848.11c0,-51.47 -9.57,-86.01 -28.83,-103.58 -11.67,-10.77 -32.5,-17.26 -62.54,-19.53l0 -44.44 349.88 0 0 44.35c-31.3,2.27 -52.84,8.49 -64.58,18.67 -19.5,17.69 -29.24,52.54 -29.24,104.53l0 848.2c0,49.05 7.83,81.82 23.45,98.34 15.61,16.51 39.06,24.78 70.36,24.83l0 44.41 -349.88 0 0 -44.41z"/>
  <path class="fil0" d="M11780.76 32.52l602.35 0 1.02 353.09 -28.84 0c-9.47,-126.31 -36.5,-211.78 -81.14,-256.4 -25.08,-24.51 -62.54,-37.95 -112.39,-40.28l0 922.31c0,64.48 6.47,107.25 19.32,128.34 12.87,21.11 39.69,31.64 80.38,31.64l0 44.44 -356.71 0 0 -44.23c39.19,0 65.16,-10.73 77.98,-32.12 12.74,-21.4 19.21,-64.05 19.27,-127.94l0 -922.3c-48.83,2.3 -86.3,15.72 -112.38,40.28 -47.77,45.66 -74.75,131.08 -80.97,256.26l-28.83 0 0.95 -353.09z"/>
  <path class="fil0" d="M12366.28 1171.44c24.13,-2.85 43.51,-21.97 58.17,-57.34 9.46,-22.19 22.99,-71.19 40.69,-147.03l222.32 -958.47 27.81 0 223.32 920.04c25.07,103.18 43.81,169.72 56.2,199.67 12.38,29.91 29.97,44.3 52.77,43.15l0 44.46 -323.96 0 0 -44.48c32.54,-2.33 53.96,-7.2 64.25,-14.57 10.3,-7.4 15.39,-26.19 15.39,-56.43 -0.84,-21 -3.46,-41.87 -7.78,-62.45 -3.28,-16.47 -7.72,-36.43 -13.28,-59.85l-25.44 -106.03 -224.63 0c-14.84,69.64 -24.35,114.99 -28.47,136.09 -8.8,45.03 -13.23,77.82 -13.23,98.33 0,25.1 9.63,43.36 28.76,54.76 11.45,6.29 28.56,9.73 51.36,10.25l0 44.46 -204.25 0 0 -44.57zm375.69 -368.56l-96.47 -405.27 -8.39 0 -90.4 405.27 195.26 0z"/>
  <path class="fil0" d="M13105.91 807.17l28.83 0c15.93,130.84 41.59,225.97 77.15,285.36 35.48,59.42 76.17,89.13 122.05,89.15 44.58,0 76.24,-20.4 94.9,-61.2 18.76,-40.35 28.38,-84.29 28.25,-128.78 0,-52.47 -9.82,-95.24 -29.44,-128.34 -12.99,-21.68 -39.31,-49.92 -78.91,-84.73l-63.74 -56.45c-63.31,-55.89 -107.95,-111.23 -133.93,-166.02 -25.96,-54.81 -38.95,-122.38 -38.95,-202.77 -0.65,-82.7 16.99,-164.53 51.64,-239.62 34.42,-74.16 87.18,-111.23 158.23,-111.23 37.04,0.18 73.36,10.22 105.19,29.12 33.81,19.39 53.15,29.06 57.92,29.06 10.91,0 18.44,-5.56 22.65,-16.69 4.91,-14.28 8.3,-29.04 10.16,-44.04l29.8 0 0 381.37 -27.88 0c-13.05,-88.34 -36.07,-164.44 -69.01,-228.32 -32.95,-63.87 -72.98,-95.78 -120.09,-95.76 -33.15,0 -59.35,16.13 -78.57,48.38 -19.27,32.25 -28.9,71.42 -28.9,117.53 0,55.35 9.05,96.71 27.12,124.08 17.71,27.95 57.44,69.05 119.14,123.23l73.88 65.03c31.55,27.45 58.24,60.14 78.75,96.6 36.64,66.11 54.94,146.42 54.94,240.98 0.36,86.8 -19.75,172.45 -58.76,249.98 -39.2,78.37 -102.1,117.54 -188.67,117.54 -20.54,-0.09 -40.87,-3.4 -60.33,-9.82 -21.49,-7.13 -41.84,-17.35 -60.32,-30.33l-19.23 -12.84c-4.18,-2.13 -8.55,-3.99 -12.98,-5.57 -3.42,-1.24 -6.94,-1.97 -10.59,-2.13 -4.79,-0.13 -9.52,1.34 -13.34,4.23 -3.85,2.88 -6.59,6.97 -7.79,11.61 -4.79,14.59 -8.21,29.6 -10.11,44.85l-28.85 0 -0.23 -433.48z"/>
  <path class="fil0" d="M6080.51 3623.67c43.2,-5.2 77.85,-39.94 104.02,-104.27 16.92,-40.48 41.09,-129.7 72.64,-267.64l398.28 -1744.28 49.73 0 400.15 1674.29c44.94,187.76 78.44,308.85 100.65,363.31 22.15,54.48 53.67,80.67 94.54,78.59l0 80.92 -580.03 0 0 -80.92c58.35,-4.14 96.71,-12.96 115.14,-26.46 18.44,-13.5 27.64,-47.74 27.59,-102.7 0,-24.88 -4.68,-62.74 -14.02,-113.59 -6.04,-30.14 -13.94,-66.45 -23.68,-108.92l-45.59 -193.13 -402.44 0c-26.26,126.58 -43.2,209.05 -50.8,247.39 -15.79,81.96 -23.7,141.6 -23.63,178.94 0,45.66 17.24,78.81 51.64,99.47 20.4,11.42 51.04,17.64 91.91,18.68l0 80.92 -365.91 0 -0.19 -80.6zm673.15 -670.68l-172.52 -737.64 -15.02 0 -161.8 737.5 349.33 0.14z"/>
  <path class="fil0" d="M7405.09 3623.67c68.26,-1.06 112.68,-22.6 133.07,-64.58 20.48,-41.99 30.69,-105.01 30.69,-189.07l0 -1513.98c0,-86.53 -11.72,-143.46 -35.05,-170.75 -23.34,-27.3 -64.83,-45.08 -124.35,-53.36l0 -80.87 451.79 0 352.64 1475.1 14.84 0 350.78 -1475.1 452.15 0 0 81.05c-60.76,8.31 -102.21,28.18 -124.35,59.65 -22.14,31.45 -33.26,108.58 -33.26,231.34l0 1409.59c0,117.24 11.06,194.01 33.26,230.31 22.19,36.27 63.6,56.49 124.35,60.68l0 80.92 -595.3 0 0 -80.92c53.13,-3.03 93.16,-18.87 119.98,-47.5 26.8,-28.62 40.26,-91.12 40.26,-187.47l0 -1557.65 -13.1 0 -439.54 1873.55 -48.03 0 -443.97 -1836.12 -7.82 0 0 1440.96c0,106.34 11.06,184 33.26,232.97 22.15,48.99 71.2,76.1 147.04,81.37l0 80.94 -419.36 0 0 -81.05z"/>
  <path class="fil0" d="M9139.42 3623.65c50.8,-2.06 87.23,-12.97 109.44,-32.68 36.14,-33.15 54.22,-96.94 54.22,-191.39l0 -1543.54c0,-93.75 -17.24,-156.6 -51.64,-188.51 -21.13,-19.57 -58.46,-31.43 -112.09,-35.6l0 -80.87 626.89 0 0 81.05c-56.06,4.17 -94.6,15.5 -115.55,33.99 -35.08,32 -52.54,95.29 -52.54,189.89l0 1543.59c0,89.27 14,148.92 42,178.95 27.99,30.05 70.02,45.12 126.08,45.23l0 80.92 -626.82 0 0 -81.03z"/>
  <path class="fil0" d="M9890.52 3623.65c48.72,-3.01 83.36,-14.41 104.02,-34.22 34.64,-33.15 51.92,-96.44 51.92,-189.89l0 -1543.5c0,-91.69 -15.85,-153.46 -47.49,-185.34 -19.41,-19.62 -55.48,-32.5 -108.32,-38.68l0 -80.96 606.72 0 0 81.05c-61.88,9.32 -103.59,29.97 -125.18,61.95 -21.63,31.98 -32.43,108.27 -32.5,228.86l0 683.09 385.8 -694.58c26.8,-47.59 44.15,-81.49 52.04,-101.66 8.46,-23.66 12.47,-48.7 11.86,-73.8 0,-40.34 -10.34,-66.22 -31.1,-77.62 -20.72,-11.4 -60.82,-20.15 -120.16,-26.23l0 -81.05 519.17 0 0 81.05c-92.82,13.55 -169.64,60.26 -230.62,140.16 -60.93,79.9 -176.34,274.32 -346.36,583.21l547.05 1203.25c11.68,25.85 23.24,42.16 34.58,48.92 11.45,6.74 29.08,12.17 53.04,16.29l0 80.92 -601.29 0 0 -81.21c54.28,-1.04 91.33,-5.18 111.26,-12.42 19.86,-7.24 29.78,-25.33 29.74,-54.26 -0.8,-17.76 -4.03,-35.28 -9.64,-52.13 -9.64,-29.45 -21.08,-58.29 -34.17,-86.35l-325.95 -723.91 -45.24 81.05 0 623.91c0,92.32 17.35,155.09 51.93,188.26 20,19.75 54.71,31.68 104.02,35.82l0 80.92 -604.93 0 -0.18 -80.89z"/>
  <path class="fil0" d="M12423.86 1814c123.26,212.68 184.96,486.62 184.96,821.79 0,335.21 -61.7,608.98 -184.96,821.35 -120.22,207.53 -270.49,311.27 -450.83,311.22 -191.43,0 -347.56,-113.58 -468.37,-340.74 -112.62,-213.71 -168.92,-472.02 -168.92,-774.92 0,-334.02 58.94,-608.41 176.77,-823.15 119.29,-217.82 272.86,-326.74 460.7,-326.74 180.95,0 331.15,103.74 450.65,311.18zm-174.01 1422.2c26.8,-153.48 40.26,-353.68 40.33,-600.63 0,-339.23 -28.54,-594.93 -85.51,-767.09 -57.05,-172.15 -134.28,-258.25 -231.89,-258.28 -135.66,0 -228.59,143.67 -278.8,430.99 -26.32,152.48 -39.42,350.62 -39.42,594.39 0,247.95 13.39,448.14 40.33,600.63 49.66,283.32 142.3,424.99 277.89,424.99 134.41,-0.14 226.73,-141.79 277.07,-424.99z"/>
  <path class="fil0" d="M12734.91 3623.67c68.28,-1.06 112.61,-22.6 133.07,-64.58 20.41,-41.99 30.64,-105.01 30.64,-189.07l0 -1513.98c0,-86.53 -11.67,-143.46 -35,-170.75 -23.41,-27.3 -64.83,-45.03 -124.3,-53.18l0 -81.05 451.74 0 352.64 1475.1 14.9 0 350.76 -1475.1 452.11 0 0 81.05c-60.69,8.31 -102.17,28.18 -124.35,59.65 -22.14,31.45 -33.26,108.58 -33.26,231.34l0 1409.59c0,117.24 11.13,194.01 33.26,230.31 22.19,36.27 63.67,56.49 124.35,60.68l0 80.92 -595.23 0 0 -80.92c53.13,-3.03 93.12,-18.87 119.91,-47.5 26.8,-28.62 40.28,-91.12 40.28,-187.47l0 -1557.65 -13.12 0 -439.54 1873.55 -48.1 0 -443.9 -1836.12 -7.89 0 0 1440.96c0,106.34 11.08,184 33.27,232.97 22.21,48.99 71.21,76.1 147.1,81.37l0 80.94 -419.36 0 0 -81.05z"/>
  <path class="fil0" d="M7208.43 4064.47l0 43.09c-32.61,3.3 -53.55,7.73 -62.83,13.25 -9.21,5.52 -13.89,17.11 -13.89,34.76 0.14,8.46 0.97,16.92 2.58,25.22 1.63,9.04 5.56,25.46 11.79,49.28l125.06 407.34 1.27 0 101.55 -298.11c6.52,-18.1 13.28,-40.44 20.34,-67.06 10.79,-40.28 16.17,-70.09 16.22,-89.43 0,-29.76 -6.63,-49.64 -19.93,-59.57 -9.03,-6.68 -28.72,-11.93 -59.17,-15.75l0 -43.04 207.99 0 0 43.09c-12.92,3.84 -25.13,9.7 -36.19,17.37 -11.38,10.47 -20.95,26.48 -28.67,47.99l-180.82 527.41 0 311.94c0,64.6 6.15,106.12 18.44,124.6 12.26,18.48 35.23,28.56 68.98,30.25l0 43.04 -328.14 0 0 -43.04c35.12,-1.69 58.44,-12.46 70.06,-32.29 11.6,-19.82 17.42,-60.68 17.35,-122.56l0 -249.19 -172.81 -562.98c-11.38,-36.97 -25.44,-62.94 -42.07,-77.84 -9.27,-8.6 -21.2,-13.82 -33.74,-14.88l0 -42.91 316.65 0z"/>
  <path class="fil0" d="M8166.77 4204.36c65.05,113.15 97.61,258.84 97.61,437.14 0,178.28 -32.56,324 -97.61,437.14 -63.49,110.41 -142.9,165.61 -238.09,165.61 -101.08,0 -183.53,-60.45 -247.39,-181.34 -59.48,-113.67 -89.22,-251.09 -89.22,-412.27 0,-177.84 31.12,-323.83 93.41,-438.03 62.9,-115.84 143.91,-173.78 243.2,-173.83 95.55,0 174.96,55.21 238.09,165.58zm-92.21 756.73c14.18,-81.69 21.31,-188.22 21.31,-319.59 0,-180.48 -15.09,-316.54 -45.24,-408.16 -30.1,-91.62 -70.85,-137.38 -122.19,-137.22 -71.62,0 -120.7,76.44 -147.26,229.36 -13.84,81.1 -20.77,186.61 -20.83,316.47 0,131.92 7.12,238.47 21.35,319.59 26.21,150.7 75.11,226.06 146.74,226.06 70.97,-0.34 119.68,-75.83 146.13,-226.51z"/>
  <path class="fil0" d="M8423.92 4220.88c62.88,-118.62 143.19,-177.94 240.92,-177.99 39.19,0 78.13,13.12 116.92,39.33 38.83,26.23 63.01,39.35 72.64,39.35 10.16,0 18.08,-6.33 24.47,-19.04 6.47,-12.72 11.24,-32 15.27,-57.97l26.32 0 0 396.6 -24.06 0c-22.74,-86.15 -46.03,-154.05 -69.77,-203.69 -44.39,-91.62 -94.67,-137.44 -150.74,-137.44 -61.05,0 -105.62,47.47 -133.62,142.41 -28.06,94.95 -42.13,228.52 -42.06,400.7 0,141.31 13.05,267.28 39.08,377.97 26.02,110.67 76.35,166 150.92,165.96 40.37,0 67.49,-15.18 81.37,-45.53 8.01,-17.1 12.04,-43.01 12.04,-77.8l0 -178.85c0,-51.25 -8.76,-84.9 -26.35,-101.01 -11.42,-9.95 -34.51,-15.47 -69.35,-16.55l0 -42.82 324.58 0 0 43.04c-32.68,2.22 -54.33,13.94 -64.99,35.19 -10.65,21.24 -15.99,61.11 -15.92,119.62l0 216.09c-21.08,23.21 -55.01,46.39 -101.73,69.56 -49.01,23.65 -102.82,35.57 -157.22,34.76 -105.12,0 -189.09,-59.33 -251.97,-178 -58.6,-110.96 -87.91,-250.05 -87.84,-417.3 0,-169.03 30.32,-311.22 91.07,-426.62z"/>
  <path class="fil0" d="M9365.25 4064.47l0 43.09c-32.61,3.3 -53.55,7.73 -62.83,13.25 -9.21,5.52 -13.89,17.11 -13.89,34.76 0.07,8.49 0.91,16.92 2.58,25.22 1.61,9.04 5.57,25.46 11.79,49.28l125.06 407.34 1.27 0 101.6 -298.06c6.47,-18.1 13.3,-40.44 20.36,-67.07 10.76,-40.28 16.15,-70.08 16.22,-89.42 0,-29.76 -6.66,-49.65 -19.93,-59.58 -9.05,-6.67 -28.79,-11.92 -59.19,-15.74l0 -43.09 208.01 0 0 43.09c-12.94,3.84 -25.13,9.7 -36.21,17.37 -11.38,10.47 -20.95,26.48 -28.65,47.99l-180.84 527.41 0 311.94c0,64.6 6.17,106.12 18.43,124.6 12.26,18.48 35.24,28.56 68.94,30.25l0 43.04 -328.21 0 0 -43.04c35.12,-1.69 58.46,-12.46 70.06,-32.29 11.56,-19.82 17.35,-60.68 17.31,-122.56l0 -249.19 -172.7 -562.98c-11.38,-36.97 -25.44,-62.94 -42.07,-77.84 -9.27,-8.6 -21.2,-13.82 -33.76,-14.88l0 -42.91 316.67 0z"/>
  <path class="fil0" d="M9648.84 5167.26c22.8,-2.78 41.09,-21.26 55.05,-55.48 9.02,-21.54 21.78,-69.01 38.35,-142.42l210.33 -928.1 26.39 0 211.24 890.67c23.74,99.92 41.52,164.35 53.24,193.33 11.74,28.95 28.31,42.9 49.73,41.82l0 43.04 -306.56 0 0 -43.04c30.82,-2.22 51.11,-6.92 60.82,-14.12 9.63,-7.19 14.59,-25.35 14.59,-54.62 -0.84,-20.31 -3.28,-40.53 -7.42,-60.46 -2.99,-15.99 -7.17,-35.3 -12.51,-57.94l-24.04 -102.68 -212.5 0c-13.89,67.38 -22.87,111.25 -26.86,131.65 -8.33,43.62 -12.51,75.35 -12.51,95.21 0,24.27 9.04,41.93 27.15,52.99 10.79,6.02 26.94,9.35 48.54,9.96l0 43.04 -193.28 0 0.25 -42.86zm355.44 -356.8l-91.08 -392.45 -7.96 0 -85.45 392.45 184.49 0z"/>
  <path class="fil0" d="M10339.15 5167.26c25.67,-1.7 43.99,-7.71 54.82,-18.1 18.31,-17.69 27.46,-51.36 27.46,-101.01l0 -821.43c0,-48.76 -8.37,-81.64 -25.13,-98.68 -10.24,-10.4 -29.26,-17.26 -57.15,-20.54l0 -43.04 320.39 0 0 43.09c-32.68,4.91 -54.69,15.88 -66.14,32.9 -11.42,17.04 -17.1,57.72 -17.1,122.08l0 363.45 203.76 -369.6c10.22,-17.53 19.38,-35.64 27.52,-54.26 4.41,-12.6 6.58,-25.89 6.22,-39.24 0,-21.47 -5.52,-35.23 -16.47,-41.32 -10.95,-6.11 -32.07,-10.77 -63.31,-14.02l0 -43.09 274.18 0 0 43.09c-49.01,7.15 -89.58,31.97 -121.83,74.49 -32.18,42.54 -93.16,145.97 -182.92,310.35l289.02 640.16c6.17,13.57 12.21,22.62 18.07,26.05 8.76,4.48 18.26,7.4 28.02,8.68l0 43.04 -317.69 0 0 -43.04c28.65,-0.54 48.28,-2.76 58.76,-6.65 10.54,-3.89 15.81,-13.55 15.74,-28.99 -0.36,-9.43 -2.1,-18.75 -5.09,-27.7 -5.09,-15.68 -11.13,-31.03 -18.07,-45.98l-172.04 -385.07 -24 43.15 0 332.01c0,49.11 9.17,82.51 27.41,100.2 10.54,10.49 28.83,16.83 54.87,19.04l0 43.04 -319.48 0 0.18 -43.08z"/>
  <path class="fil0" d="M11069.19 5167.24c22.87,-2.76 41.23,-21.27 55.05,-55.46 9.05,-21.54 21.85,-69.01 38.36,-142.42l210.4 -928.1 26.32 0 211.35 890.67c23.69,99.9 41.47,164.35 53.15,193.33 11.67,28.95 28.29,42.9 49.73,41.8l0 43.06 -306.5 0 0 -43.06c30.8,-2.22 51.1,-6.93 60.8,-14.1 9.68,-7.17 14.55,-25.37 14.55,-54.62 -0.84,-20.31 -3.31,-40.53 -7.42,-60.46 -3.01,-15.99 -7.2,-35.3 -12.47,-57.94l-24.1 -102.68 -212.48 0c-13.96,67.35 -22.87,111.25 -26.87,131.65 -8.32,43.6 -12.46,75.35 -12.46,95.21 0,24.27 9.05,41.93 27.11,52.99 10.77,6.02 26.98,9.35 48.54,9.94l0 43.06 -193.24 0 0.18 -42.88zm355.62 -356.8l-91.12 -392.43 -7.96 0 -85.45 392.43 184.53 0z"/>
  <path class="fil0" d="M11751.08 5167.26c32.07,-2.78 53.97,-13.55 65.64,-32.29 11.67,-18.73 17.53,-59.6 17.6,-122.56l0 -750.08c0,-65.37 -6.95,-107.91 -20.84,-127.63 -9.27,-13.21 -30.1,-22.26 -62.4,-27.13l0 -43.09 304.69 0c63.31,0 114.53,11.88 153.73,35.62 75.83,48.02 113.69,134.39 113.76,259.16 0,92.19 -19.86,164.76 -59.59,217.73 -30.35,39.71 -62.5,65.12 -96.42,76.17l201.02 482.8c5.25,13.23 10.84,21.94 16.69,26.1 6.47,4.34 13.94,7.03 21.72,7.87l0 40.68 -197.58 0 -220.87 -529.89 -0.43 0 0 332c0,59.62 5.59,99.78 16.65,120.47 11.06,20.72 33.26,32.16 66.61,34.38l0 43.03 -319.96 0 0 -43.35zm369.81 -588.23c26.68,-29.52 40.03,-97.85 40.03,-204.96 0,-65.64 -5.09,-117.51 -15.27,-155.61 -17.54,-64.59 -49.6,-96.89 -96.22,-96.89 -25.25,0 -41.84,5.66 -49.73,16.95 -7.9,11.31 -11.79,29.94 -11.79,55.88l0 431.37c61.93,-1.62 106.21,-17.21 132.97,-46.74z"/>
  <path class="fil0" d="M12411.83 4064.47l570.15 0 0.9 341.93 -27.11 0c-9.03,-122.27 -34.63,-205.03 -76.83,-248.25 -23.74,-23.79 -59.19,-36.79 -106.32,-39.01l0 893.22c0,62.41 5.97,103.82 18.07,124.28 12.01,20.47 37.39,30.69 76.04,30.66l0 43.04 -337.49 0 0 -43.04c36.97,0 61.52,-10.38 73.72,-31.11 12.15,-20.75 18.19,-62.02 18.08,-123.83l0 -893.27c-46.28,2.22 -81.69,15.23 -106.35,39.02 -45.19,44.3 -70.85,127.05 -76.82,248.24l-27.16 0 1.13 -341.88z"/>
  <path class="fil0" d="M12965.89 5167.26c22.85,-2.78 41.16,-21.26 55.05,-55.48 9.03,-21.54 21.83,-69.01 38.36,-142.42l210.37 -928.1 26.35 0 211.35 890.67c23.74,99.92 41.45,164.35 53.12,193.33 11.74,28.95 28.32,42.9 49.74,41.82l0 43.04 -306.57 0 0 -43.04c30.83,-2.24 51.12,-6.95 60.8,-14.12 9.71,-7.17 14.55,-25.37 14.55,-54.62 -0.77,-20.31 -3.28,-40.53 -7.36,-60.46 -2.98,-15.99 -7.19,-35.3 -12.51,-57.94l-24.1 -102.68 -212.5 0c-13.87,67.38 -22.8,111.25 -26.8,131.65 -8.32,43.62 -12.51,75.35 -12.51,95.21 0,24.27 9.05,41.93 27.12,52.99 10.83,6.02 27.04,9.35 48.58,9.96l0 43.04 -193.29 0 0.25 -42.86zm355.49 -356.84l-91.06 -392.45 -7.96 0 -85.47 392.45 184.49 0z"/>
 </g>
</svg>
